<svg xmlns="http://www.w3.org/2000/svg" xmlns:xlink="http://www.w3.org/1999/xlink" width="500" zoomAndPan="magnify" viewBox="0 0 375 374.999991" height="500" preserveAspectRatio="xMidYMid meet" version="1.0"><defs><clipPath id="c1396a237c"><path d="M 151.34375 151.175781 L 223.34375 151.175781 L 223.34375 223.175781 L 151.34375 223.175781 Z M 151.34375 151.175781 " clip-rule="nonzero"/></clipPath><clipPath id="49ecfb70ad"><path d="M 203 164 L 223.34375 164 L 223.34375 211 L 203 211 Z M 203 164 " clip-rule="nonzero"/></clipPath><clipPath id="889045bda4"><path d="M 151.34375 164 L 172 164 L 172 211 L 151.34375 211 Z M 151.34375 164 " clip-rule="nonzero"/></clipPath><clipPath id="c7ed53710e"><path d="M 177.753906 122.488281 L 197.246094 122.488281 L 197.246094 141.984375 L 177.753906 141.984375 Z M 177.753906 122.488281 " clip-rule="nonzero"/></clipPath><clipPath id="8ec5073e99"><path d="M 187.5 122.488281 C 182.117188 122.488281 177.753906 126.855469 177.753906 132.238281 C 177.753906 137.621094 182.117188 141.984375 187.5 141.984375 C 192.882812 141.984375 197.246094 137.621094 197.246094 132.238281 C 197.246094 126.855469 192.882812 122.488281 187.5 122.488281 Z M 187.5 122.488281 " clip-rule="nonzero"/></clipPath><clipPath id="7e10b0fb73"><path d="M 0.753906 0.488281 L 20.246094 0.488281 L 20.246094 19.984375 L 0.753906 19.984375 Z M 0.753906 0.488281 " clip-rule="nonzero"/></clipPath><clipPath id="f39bd2d005"><path d="M 10.5 0.488281 C 5.117188 0.488281 0.753906 4.855469 0.753906 10.238281 C 0.753906 15.621094 5.117188 19.984375 10.5 19.984375 C 15.882812 19.984375 20.246094 15.621094 20.246094 10.238281 C 20.246094 4.855469 15.882812 0.488281 10.5 0.488281 Z M 10.5 0.488281 " clip-rule="nonzero"/></clipPath><clipPath id="bd8c94f284"><rect x="0" width="21" y="0" height="20"/></clipPath><clipPath id="7945ea8c53"><path d="M 151.15625 130.085938 L 170.648438 130.085938 L 170.648438 149.578125 L 151.15625 149.578125 Z M 151.15625 130.085938 " clip-rule="nonzero"/></clipPath><clipPath id="59905f8e03"><path d="M 160.902344 130.085938 C 155.519531 130.085938 151.15625 134.449219 151.15625 139.832031 C 151.15625 145.214844 155.519531 149.578125 160.902344 149.578125 C 166.285156 149.578125 170.648438 145.214844 170.648438 139.832031 C 170.648438 134.449219 166.285156 130.085938 160.902344 130.085938 Z M 160.902344 130.085938 " clip-rule="nonzero"/></clipPath><clipPath id="9a195680a2"><path d="M 0.15625 0.0859375 L 19.648438 0.0859375 L 19.648438 19.578125 L 0.15625 19.578125 Z M 0.15625 0.0859375 " clip-rule="nonzero"/></clipPath><clipPath id="129ec3cda9"><path d="M 9.902344 0.0859375 C 4.519531 0.0859375 0.15625 4.449219 0.15625 9.832031 C 0.15625 15.214844 4.519531 19.578125 9.902344 19.578125 C 15.285156 19.578125 19.648438 15.214844 19.648438 9.832031 C 19.648438 4.449219 15.285156 0.0859375 9.902344 0.0859375 Z M 9.902344 0.0859375 " clip-rule="nonzero"/></clipPath><clipPath id="9769adaa6b"><rect x="0" width="20" y="0" height="20"/></clipPath><clipPath id="78fa926578"><path d="M 129.738281 149.578125 L 149.230469 149.578125 L 149.230469 169.070312 L 129.738281 169.070312 Z M 129.738281 149.578125 " clip-rule="nonzero"/></clipPath><clipPath id="1c94ca89be"><path d="M 139.484375 149.578125 C 134.101562 149.578125 129.738281 153.941406 129.738281 159.324219 C 129.738281 164.707031 134.101562 169.070312 139.484375 169.070312 C 144.867188 169.070312 149.230469 164.707031 149.230469 159.324219 C 149.230469 153.941406 144.867188 149.578125 139.484375 149.578125 Z M 139.484375 149.578125 " clip-rule="nonzero"/></clipPath><clipPath id="d5d7a39e82"><path d="M 0.738281 0.578125 L 20.230469 0.578125 L 20.230469 20.070312 L 0.738281 20.070312 Z M 0.738281 0.578125 " clip-rule="nonzero"/></clipPath><clipPath id="9c6ac4e4ba"><path d="M 10.484375 0.578125 C 5.101562 0.578125 0.738281 4.941406 0.738281 10.324219 C 0.738281 15.707031 5.101562 20.070312 10.484375 20.070312 C 15.867188 20.070312 20.230469 15.707031 20.230469 10.324219 C 20.230469 4.941406 15.867188 0.578125 10.484375 0.578125 Z M 10.484375 0.578125 " clip-rule="nonzero"/></clipPath><clipPath id="751931c16d"><rect x="0" width="21" y="0" height="21"/></clipPath><clipPath id="0e429757f8"><path d="M 204.164062 130.085938 L 223.65625 130.085938 L 223.65625 149.578125 L 204.164062 149.578125 Z M 204.164062 130.085938 " clip-rule="nonzero"/></clipPath><clipPath id="d9cdef0ef3"><path d="M 213.910156 130.085938 C 208.527344 130.085938 204.164062 134.449219 204.164062 139.832031 C 204.164062 145.214844 208.527344 149.578125 213.910156 149.578125 C 219.292969 149.578125 223.65625 145.214844 223.65625 139.832031 C 223.65625 134.449219 219.292969 130.085938 213.910156 130.085938 Z M 213.910156 130.085938 " clip-rule="nonzero"/></clipPath><clipPath id="7963a2fda4"><path d="M 0.164062 0.0859375 L 19.65625 0.0859375 L 19.65625 19.578125 L 0.164062 19.578125 Z M 0.164062 0.0859375 " clip-rule="nonzero"/></clipPath><clipPath id="247bf33110"><path d="M 9.910156 0.0859375 C 4.527344 0.0859375 0.164062 4.449219 0.164062 9.832031 C 0.164062 15.214844 4.527344 19.578125 9.910156 19.578125 C 15.292969 19.578125 19.65625 15.214844 19.65625 9.832031 C 19.65625 4.449219 15.292969 0.0859375 9.910156 0.0859375 Z M 9.910156 0.0859375 " clip-rule="nonzero"/></clipPath><clipPath id="dec4242aa0"><rect x="0" width="20" y="0" height="20"/></clipPath><clipPath id="9ba47c44cc"><path d="M 225.769531 149.578125 L 245.261719 149.578125 L 245.261719 169.070312 L 225.769531 169.070312 Z M 225.769531 149.578125 " clip-rule="nonzero"/></clipPath><clipPath id="ae38ebb0b2"><path d="M 235.515625 149.578125 C 230.132812 149.578125 225.769531 153.941406 225.769531 159.324219 C 225.769531 164.707031 230.132812 169.070312 235.515625 169.070312 C 240.898438 169.070312 245.261719 164.707031 245.261719 159.324219 C 245.261719 153.941406 240.898438 149.578125 235.515625 149.578125 Z M 235.515625 149.578125 " clip-rule="nonzero"/></clipPath><clipPath id="f698e055f7"><path d="M 0.769531 0.578125 L 20.261719 0.578125 L 20.261719 20.070312 L 0.769531 20.070312 Z M 0.769531 0.578125 " clip-rule="nonzero"/></clipPath><clipPath id="6d4630e0a6"><path d="M 10.515625 0.578125 C 5.132812 0.578125 0.769531 4.941406 0.769531 10.324219 C 0.769531 15.707031 5.132812 20.070312 10.515625 20.070312 C 15.898438 20.070312 20.261719 15.707031 20.261719 10.324219 C 20.261719 4.941406 15.898438 0.578125 10.515625 0.578125 Z M 10.515625 0.578125 " clip-rule="nonzero"/></clipPath><clipPath id="d0f42bd931"><rect x="0" width="21" y="0" height="21"/></clipPath><clipPath id="5c2097007c"><path d="M 177.753906 233 L 197.246094 233 L 197.246094 252.496094 L 177.753906 252.496094 Z M 177.753906 233 " clip-rule="nonzero"/></clipPath><clipPath id="50319e6ae1"><path d="M 187.5 233 C 182.117188 233 177.753906 237.363281 177.753906 242.746094 C 177.753906 248.128906 182.117188 252.496094 187.5 252.496094 C 192.882812 252.496094 197.246094 248.128906 197.246094 242.746094 C 197.246094 237.363281 192.882812 233 187.5 233 Z M 187.5 233 " clip-rule="nonzero"/></clipPath><clipPath id="972fe6e322"><path d="M 0.753906 0 L 20.246094 0 L 20.246094 19.496094 L 0.753906 19.496094 Z M 0.753906 0 " clip-rule="nonzero"/></clipPath><clipPath id="5183753dfa"><path d="M 10.5 0 C 5.117188 0 0.753906 4.363281 0.753906 9.746094 C 0.753906 15.128906 5.117188 19.496094 10.5 19.496094 C 15.882812 19.496094 20.246094 15.128906 20.246094 9.746094 C 20.246094 4.363281 15.882812 0 10.5 0 Z M 10.5 0 " clip-rule="nonzero"/></clipPath><clipPath id="fb0564f81e"><rect x="0" width="21" y="0" height="20"/></clipPath><clipPath id="9bd503cb46"><path d="M 207.722656 252.496094 L 220.09375 252.496094 L 220.09375 264.863281 L 207.722656 264.863281 Z M 207.722656 252.496094 " clip-rule="nonzero"/></clipPath><clipPath id="803d6af24a"><path d="M 213.910156 252.496094 C 210.492188 252.496094 207.722656 255.261719 207.722656 258.679688 C 207.722656 262.09375 210.492188 264.863281 213.910156 264.863281 C 217.324219 264.863281 220.09375 262.09375 220.09375 258.679688 C 220.09375 255.261719 217.324219 252.496094 213.910156 252.496094 Z M 213.910156 252.496094 " clip-rule="nonzero"/></clipPath><clipPath id="01fae87494"><path d="M 0.722656 0.496094 L 13.09375 0.496094 L 13.09375 12.863281 L 0.722656 12.863281 Z M 0.722656 0.496094 " clip-rule="nonzero"/></clipPath><clipPath id="0d1abe086d"><path d="M 6.910156 0.496094 C 3.492188 0.496094 0.722656 3.261719 0.722656 6.679688 C 0.722656 10.09375 3.492188 12.863281 6.910156 12.863281 C 10.324219 12.863281 13.09375 10.09375 13.09375 6.679688 C 13.09375 3.261719 10.324219 0.496094 6.910156 0.496094 Z M 6.910156 0.496094 " clip-rule="nonzero"/></clipPath><clipPath id="6b847a6144"><rect x="0" width="14" y="0" height="13"/></clipPath><clipPath id="439d73d5a2"><path d="M 207.722656 110.121094 L 220.09375 110.121094 L 220.09375 122.488281 L 207.722656 122.488281 Z M 207.722656 110.121094 " clip-rule="nonzero"/></clipPath><clipPath id="53fb0b8973"><path d="M 213.910156 110.121094 C 210.492188 110.121094 207.722656 112.890625 207.722656 116.304688 C 207.722656 119.722656 210.492188 122.488281 213.910156 122.488281 C 217.324219 122.488281 220.09375 119.722656 220.09375 116.304688 C 220.09375 112.890625 217.324219 110.121094 213.910156 110.121094 Z M 213.910156 110.121094 " clip-rule="nonzero"/></clipPath><clipPath id="3a2bb3b387"><path d="M 0.722656 0.121094 L 13.09375 0.121094 L 13.09375 12.488281 L 0.722656 12.488281 Z M 0.722656 0.121094 " clip-rule="nonzero"/></clipPath><clipPath id="fa8edf2365"><path d="M 6.910156 0.121094 C 3.492188 0.121094 0.722656 2.890625 0.722656 6.304688 C 0.722656 9.722656 3.492188 12.488281 6.910156 12.488281 C 10.324219 12.488281 13.09375 9.722656 13.09375 6.304688 C 13.09375 2.890625 10.324219 0.121094 6.910156 0.121094 Z M 6.910156 0.121094 " clip-rule="nonzero"/></clipPath><clipPath id="8145587fe4"><rect x="0" width="14" y="0" height="13"/></clipPath><clipPath id="049d813b80"><path d="M 181.949219 261.699219 L 194.320312 261.699219 L 194.320312 274.070312 L 181.949219 274.070312 Z M 181.949219 261.699219 " clip-rule="nonzero"/></clipPath><clipPath id="09f84621cc"><path d="M 188.136719 261.699219 C 184.71875 261.699219 181.949219 264.46875 181.949219 267.886719 C 181.949219 271.300781 184.71875 274.070312 188.136719 274.070312 C 191.550781 274.070312 194.320312 271.300781 194.320312 267.886719 C 194.320312 264.46875 191.550781 261.699219 188.136719 261.699219 Z M 188.136719 261.699219 " clip-rule="nonzero"/></clipPath><clipPath id="7a247a2b06"><path d="M 0.949219 0.699219 L 13.320312 0.699219 L 13.320312 13.070312 L 0.949219 13.070312 Z M 0.949219 0.699219 " clip-rule="nonzero"/></clipPath><clipPath id="d27286ec8b"><path d="M 7.136719 0.699219 C 3.71875 0.699219 0.949219 3.46875 0.949219 6.886719 C 0.949219 10.300781 3.71875 13.070312 7.136719 13.070312 C 10.550781 13.070312 13.320312 10.300781 13.320312 6.886719 C 13.320312 3.46875 10.550781 0.699219 7.136719 0.699219 Z M 7.136719 0.699219 " clip-rule="nonzero"/></clipPath><clipPath id="93fa6c5634"><rect x="0" width="14" y="0" height="14"/></clipPath><clipPath id="ae3d574217"><path d="M 181.949219 100.929688 L 194.320312 100.929688 L 194.320312 113.300781 L 181.949219 113.300781 Z M 181.949219 100.929688 " clip-rule="nonzero"/></clipPath><clipPath id="76229f4f60"><path d="M 188.136719 100.929688 C 184.71875 100.929688 181.949219 103.699219 181.949219 107.113281 C 181.949219 110.53125 184.71875 113.300781 188.136719 113.300781 C 191.550781 113.300781 194.320312 110.53125 194.320312 107.113281 C 194.320312 103.699219 191.550781 100.929688 188.136719 100.929688 Z M 188.136719 100.929688 " clip-rule="nonzero"/></clipPath><clipPath id="daa9c3732c"><path d="M 0.949219 0.929688 L 13.320312 0.929688 L 13.320312 13.300781 L 0.949219 13.300781 Z M 0.949219 0.929688 " clip-rule="nonzero"/></clipPath><clipPath id="7eaa585fa5"><path d="M 7.136719 0.929688 C 3.71875 0.929688 0.949219 3.699219 0.949219 7.113281 C 0.949219 10.53125 3.71875 13.300781 7.136719 13.300781 C 10.550781 13.300781 13.320312 10.53125 13.320312 7.113281 C 13.320312 3.699219 10.550781 0.929688 7.136719 0.929688 Z M 7.136719 0.929688 " clip-rule="nonzero"/></clipPath><clipPath id="dcdf123e63"><rect x="0" width="14" y="0" height="14"/></clipPath><clipPath id="4420c5deec"><path d="M 252.558594 193.417969 L 264.929688 193.417969 L 264.929688 205.785156 L 252.558594 205.785156 Z M 252.558594 193.417969 " clip-rule="nonzero"/></clipPath><clipPath id="369ead3a50"><path d="M 264.929688 199.601562 C 264.929688 196.1875 262.160156 193.417969 258.742188 193.417969 C 255.328125 193.417969 252.558594 196.1875 252.558594 199.601562 C 252.558594 203.015625 255.328125 205.785156 258.742188 205.785156 C 262.160156 205.785156 264.929688 203.015625 264.929688 199.601562 Z M 264.929688 199.601562 " clip-rule="nonzero"/></clipPath><clipPath id="e412e702cf"><path d="M 0.558594 0.417969 L 12.929688 0.417969 L 12.929688 12.785156 L 0.558594 12.785156 Z M 0.558594 0.417969 " clip-rule="nonzero"/></clipPath><clipPath id="f14c630954"><path d="M 12.929688 6.601562 C 12.929688 3.1875 10.160156 0.417969 6.742188 0.417969 C 3.328125 0.417969 0.558594 3.1875 0.558594 6.601562 C 0.558594 10.015625 3.328125 12.785156 6.742188 12.785156 C 10.160156 12.785156 12.929688 10.015625 12.929688 6.601562 Z M 12.929688 6.601562 " clip-rule="nonzero"/></clipPath><clipPath id="2924b7669c"><rect x="0" width="13" y="0" height="13"/></clipPath><clipPath id="d3b7c0a065"><path d="M 252.558594 168.589844 L 264.929688 168.589844 L 264.929688 180.960938 L 252.558594 180.960938 Z M 252.558594 168.589844 " clip-rule="nonzero"/></clipPath><clipPath id="b51178a56c"><path d="M 264.929688 174.773438 C 264.929688 171.359375 262.160156 168.589844 258.742188 168.589844 C 255.328125 168.589844 252.558594 171.359375 252.558594 174.773438 C 252.558594 178.191406 255.328125 180.960938 258.742188 180.960938 C 262.160156 180.960938 264.929688 178.191406 264.929688 174.773438 Z M 264.929688 174.773438 " clip-rule="nonzero"/></clipPath><clipPath id="f6a240efae"><path d="M 0.558594 0.589844 L 12.929688 0.589844 L 12.929688 12.960938 L 0.558594 12.960938 Z M 0.558594 0.589844 " clip-rule="nonzero"/></clipPath><clipPath id="76117eddb6"><path d="M 12.929688 6.773438 C 12.929688 3.359375 10.160156 0.589844 6.742188 0.589844 C 3.328125 0.589844 0.558594 3.359375 0.558594 6.773438 C 0.558594 10.191406 3.328125 12.960938 6.742188 12.960938 C 10.160156 12.960938 12.929688 10.191406 12.929688 6.773438 Z M 12.929688 6.773438 " clip-rule="nonzero"/></clipPath><clipPath id="42c80397f9"><rect x="0" width="13" y="0" height="13"/></clipPath><clipPath id="3d67e46aad"><path d="M 129.738281 236.5625 L 142.105469 236.5625 L 142.105469 248.933594 L 129.738281 248.933594 Z M 129.738281 236.5625 " clip-rule="nonzero"/></clipPath><clipPath id="03b639495f"><path d="M 135.921875 236.5625 C 132.503906 236.5625 129.738281 239.332031 129.738281 242.746094 C 129.738281 246.164062 132.503906 248.933594 135.921875 248.933594 C 139.335938 248.933594 142.105469 246.164062 142.105469 242.746094 C 142.105469 239.332031 139.335938 236.5625 135.921875 236.5625 Z M 135.921875 236.5625 " clip-rule="nonzero"/></clipPath><clipPath id="a74603761d"><path d="M 0.738281 0.5625 L 13.105469 0.5625 L 13.105469 12.933594 L 0.738281 12.933594 Z M 0.738281 0.5625 " clip-rule="nonzero"/></clipPath><clipPath id="76d610f100"><path d="M 6.921875 0.5625 C 3.503906 0.5625 0.738281 3.332031 0.738281 6.746094 C 0.738281 10.164062 3.503906 12.933594 6.921875 12.933594 C 10.335938 12.933594 13.105469 10.164062 13.105469 6.746094 C 13.105469 3.332031 10.335938 0.5625 6.921875 0.5625 Z M 6.921875 0.5625 " clip-rule="nonzero"/></clipPath><clipPath id="c1f543b2af"><rect x="0" width="14" y="0" height="13"/></clipPath><clipPath id="daf1abfd4c"><path d="M 129.738281 128.015625 L 142.105469 128.015625 L 142.105469 140.386719 L 129.738281 140.386719 Z M 129.738281 128.015625 " clip-rule="nonzero"/></clipPath><clipPath id="adb42b3a1b"><path d="M 135.921875 128.015625 C 132.503906 128.015625 129.738281 130.785156 129.738281 134.203125 C 129.738281 137.617188 132.503906 140.386719 135.921875 140.386719 C 139.335938 140.386719 142.105469 137.617188 142.105469 134.203125 C 142.105469 130.785156 139.335938 128.015625 135.921875 128.015625 Z M 135.921875 128.015625 " clip-rule="nonzero"/></clipPath><clipPath id="0df1deee41"><path d="M 0.738281 0.015625 L 13.105469 0.015625 L 13.105469 12.386719 L 0.738281 12.386719 Z M 0.738281 0.015625 " clip-rule="nonzero"/></clipPath><clipPath id="007ca5759d"><path d="M 6.921875 0.015625 C 3.503906 0.015625 0.738281 2.785156 0.738281 6.203125 C 0.738281 9.617188 3.503906 12.386719 6.921875 12.386719 C 10.335938 12.386719 13.105469 9.617188 13.105469 6.203125 C 13.105469 2.785156 10.335938 0.015625 6.921875 0.015625 Z M 6.921875 0.015625 " clip-rule="nonzero"/></clipPath><clipPath id="0ea584ae53"><rect x="0" width="14" y="0" height="13"/></clipPath><clipPath id="198ca0972d"><path d="M 112.363281 215.535156 L 124.730469 215.535156 L 124.730469 227.902344 L 112.363281 227.902344 Z M 112.363281 215.535156 " clip-rule="nonzero"/></clipPath><clipPath id="12e3561bff"><path d="M 118.546875 215.535156 C 115.132812 215.535156 112.363281 218.300781 112.363281 221.71875 C 112.363281 225.132812 115.132812 227.902344 118.546875 227.902344 C 121.964844 227.902344 124.730469 225.132812 124.730469 221.71875 C 124.730469 218.300781 121.964844 215.535156 118.546875 215.535156 Z M 118.546875 215.535156 " clip-rule="nonzero"/></clipPath><clipPath id="7def5a0810"><path d="M 0.363281 0.535156 L 12.730469 0.535156 L 12.730469 12.902344 L 0.363281 12.902344 Z M 0.363281 0.535156 " clip-rule="nonzero"/></clipPath><clipPath id="97caad0f56"><path d="M 6.546875 0.535156 C 3.132812 0.535156 0.363281 3.300781 0.363281 6.71875 C 0.363281 10.132812 3.132812 12.902344 6.546875 12.902344 C 9.964844 12.902344 12.730469 10.132812 12.730469 6.71875 C 12.730469 3.300781 9.964844 0.535156 6.546875 0.535156 Z M 6.546875 0.535156 " clip-rule="nonzero"/></clipPath><clipPath id="96ad6fe87d"><rect x="0" width="13" y="0" height="13"/></clipPath><clipPath id="9b93b382ea"><path d="M 112.363281 147.027344 L 124.730469 147.027344 L 124.730469 159.398438 L 112.363281 159.398438 Z M 112.363281 147.027344 " clip-rule="nonzero"/></clipPath><clipPath id="ca4ec5b80e"><path d="M 118.546875 147.027344 C 115.132812 147.027344 112.363281 149.796875 112.363281 153.214844 C 112.363281 156.628906 115.132812 159.398438 118.546875 159.398438 C 121.964844 159.398438 124.730469 156.628906 124.730469 153.214844 C 124.730469 149.796875 121.964844 147.027344 118.546875 147.027344 Z M 118.546875 147.027344 " clip-rule="nonzero"/></clipPath><clipPath id="028f3f183e"><path d="M 0.363281 0.0273438 L 12.730469 0.0273438 L 12.730469 12.398438 L 0.363281 12.398438 Z M 0.363281 0.0273438 " clip-rule="nonzero"/></clipPath><clipPath id="c81376fb50"><path d="M 6.546875 0.0273438 C 3.132812 0.0273438 0.363281 2.796875 0.363281 6.214844 C 0.363281 9.628906 3.132812 12.398438 6.546875 12.398438 C 9.964844 12.398438 12.730469 9.628906 12.730469 6.214844 C 12.730469 2.796875 9.964844 0.0273438 6.546875 0.0273438 Z M 6.546875 0.0273438 " clip-rule="nonzero"/></clipPath><clipPath id="ea96a1bec2"><rect x="0" width="13" y="0" height="13"/></clipPath><clipPath id="9a56ac204d"><path d="M 249.859375 215.535156 L 262.230469 215.535156 L 262.230469 227.902344 L 249.859375 227.902344 Z M 249.859375 215.535156 " clip-rule="nonzero"/></clipPath><clipPath id="eb2d97201d"><path d="M 256.042969 215.535156 C 252.628906 215.535156 249.859375 218.300781 249.859375 221.71875 C 249.859375 225.132812 252.628906 227.902344 256.042969 227.902344 C 259.460938 227.902344 262.230469 225.132812 262.230469 221.71875 C 262.230469 218.300781 259.460938 215.535156 256.042969 215.535156 Z M 256.042969 215.535156 " clip-rule="nonzero"/></clipPath><clipPath id="268f4d7a79"><path d="M 0.859375 0.535156 L 13.230469 0.535156 L 13.230469 12.902344 L 0.859375 12.902344 Z M 0.859375 0.535156 " clip-rule="nonzero"/></clipPath><clipPath id="560721e376"><path d="M 7.042969 0.535156 C 3.628906 0.535156 0.859375 3.300781 0.859375 6.71875 C 0.859375 10.132812 3.628906 12.902344 7.042969 12.902344 C 10.460938 12.902344 13.230469 10.132812 13.230469 6.71875 C 13.230469 3.300781 10.460938 0.535156 7.042969 0.535156 Z M 7.042969 0.535156 " clip-rule="nonzero"/></clipPath><clipPath id="3f5835aa2b"><rect x="0" width="14" y="0" height="13"/></clipPath><clipPath id="a1a06c0e23"><path d="M 249.859375 147.027344 L 262.230469 147.027344 L 262.230469 159.398438 L 249.859375 159.398438 Z M 249.859375 147.027344 " clip-rule="nonzero"/></clipPath><clipPath id="91549e9b76"><path d="M 256.042969 147.027344 C 252.628906 147.027344 249.859375 149.796875 249.859375 153.214844 C 249.859375 156.628906 252.628906 159.398438 256.042969 159.398438 C 259.460938 159.398438 262.230469 156.628906 262.230469 153.214844 C 262.230469 149.796875 259.460938 147.027344 256.042969 147.027344 Z M 256.042969 147.027344 " clip-rule="nonzero"/></clipPath><clipPath id="a10e916e69"><path d="M 0.859375 0.0273438 L 13.230469 0.0273438 L 13.230469 12.398438 L 0.859375 12.398438 Z M 0.859375 0.0273438 " clip-rule="nonzero"/></clipPath><clipPath id="c9df017c08"><path d="M 7.042969 0.0273438 C 3.628906 0.0273438 0.859375 2.796875 0.859375 6.214844 C 0.859375 9.628906 3.628906 12.398438 7.042969 12.398438 C 10.460938 12.398438 13.230469 9.628906 13.230469 6.214844 C 13.230469 2.796875 10.460938 0.0273438 7.042969 0.0273438 Z M 7.042969 0.0273438 " clip-rule="nonzero"/></clipPath><clipPath id="81dbb34ec3"><rect x="0" width="14" y="0" height="13"/></clipPath><clipPath id="299c9a1586"><path d="M 232.839844 236.5625 L 245.210938 236.5625 L 245.210938 248.933594 L 232.839844 248.933594 Z M 232.839844 236.5625 " clip-rule="nonzero"/></clipPath><clipPath id="9ab179ba10"><path d="M 245.210938 242.746094 C 245.210938 239.332031 242.441406 236.5625 239.023438 236.5625 C 235.609375 236.5625 232.839844 239.332031 232.839844 242.746094 C 232.839844 246.164062 235.609375 248.933594 239.023438 248.933594 C 242.441406 248.933594 245.210938 246.164062 245.210938 242.746094 Z M 245.210938 242.746094 " clip-rule="nonzero"/></clipPath><clipPath id="c7b011d5ae"><path d="M 0.839844 0.5625 L 13.210938 0.5625 L 13.210938 12.933594 L 0.839844 12.933594 Z M 0.839844 0.5625 " clip-rule="nonzero"/></clipPath><clipPath id="8e050fc586"><path d="M 13.210938 6.746094 C 13.210938 3.332031 10.441406 0.5625 7.023438 0.5625 C 3.609375 0.5625 0.839844 3.332031 0.839844 6.746094 C 0.839844 10.164062 3.609375 12.933594 7.023438 12.933594 C 10.441406 12.933594 13.210938 10.164062 13.210938 6.746094 Z M 13.210938 6.746094 " clip-rule="nonzero"/></clipPath><clipPath id="d636af4f11"><rect x="0" width="14" y="0" height="13"/></clipPath><clipPath id="76d6292415"><path d="M 232.839844 128.015625 L 245.210938 128.015625 L 245.210938 140.386719 L 232.839844 140.386719 Z M 232.839844 128.015625 " clip-rule="nonzero"/></clipPath><clipPath id="412931e83c"><path d="M 245.210938 134.203125 C 245.210938 130.785156 242.441406 128.015625 239.023438 128.015625 C 235.609375 128.015625 232.839844 130.785156 232.839844 134.203125 C 232.839844 137.617188 235.609375 140.386719 239.023438 140.386719 C 242.441406 140.386719 245.210938 137.617188 245.210938 134.203125 Z M 245.210938 134.203125 " clip-rule="nonzero"/></clipPath><clipPath id="eb51bff14f"><path d="M 0.839844 0.015625 L 13.210938 0.015625 L 13.210938 12.386719 L 0.839844 12.386719 Z M 0.839844 0.015625 " clip-rule="nonzero"/></clipPath><clipPath id="35c50f476a"><path d="M 13.210938 6.203125 C 13.210938 2.785156 10.441406 0.015625 7.023438 0.015625 C 3.609375 0.015625 0.839844 2.785156 0.839844 6.203125 C 0.839844 9.617188 3.609375 12.386719 7.023438 12.386719 C 10.441406 12.386719 13.210938 9.617188 13.210938 6.203125 Z M 13.210938 6.203125 " clip-rule="nonzero"/></clipPath><clipPath id="f9675da26f"><rect x="0" width="14" y="0" height="13"/></clipPath><clipPath id="b51f9f25dc"><path d="M 110.0625 193.417969 L 122.433594 193.417969 L 122.433594 205.785156 L 110.0625 205.785156 Z M 110.0625 193.417969 " clip-rule="nonzero"/></clipPath><clipPath id="5405f6bd1a"><path d="M 116.25 193.417969 C 112.832031 193.417969 110.0625 196.1875 110.0625 199.601562 C 110.0625 203.015625 112.832031 205.785156 116.25 205.785156 C 119.664062 205.785156 122.433594 203.015625 122.433594 199.601562 C 122.433594 196.1875 119.664062 193.417969 116.25 193.417969 Z M 116.25 193.417969 " clip-rule="nonzero"/></clipPath><clipPath id="ee53ca2e86"><path d="M 0.0625 0.417969 L 12.433594 0.417969 L 12.433594 12.785156 L 0.0625 12.785156 Z M 0.0625 0.417969 " clip-rule="nonzero"/></clipPath><clipPath id="1b8167e762"><path d="M 6.25 0.417969 C 2.832031 0.417969 0.0625 3.1875 0.0625 6.601562 C 0.0625 10.015625 2.832031 12.785156 6.25 12.785156 C 9.664062 12.785156 12.433594 10.015625 12.433594 6.601562 C 12.433594 3.1875 9.664062 0.417969 6.25 0.417969 Z M 6.25 0.417969 " clip-rule="nonzero"/></clipPath><clipPath id="e51284ca24"><rect x="0" width="13" y="0" height="13"/></clipPath><clipPath id="346d058fae"><path d="M 110.0625 168.589844 L 122.433594 168.589844 L 122.433594 180.960938 L 110.0625 180.960938 Z M 110.0625 168.589844 " clip-rule="nonzero"/></clipPath><clipPath id="9fb537b9ca"><path d="M 116.25 168.589844 C 112.832031 168.589844 110.0625 171.359375 110.0625 174.773438 C 110.0625 178.191406 112.832031 180.960938 116.25 180.960938 C 119.664062 180.960938 122.433594 178.191406 122.433594 174.773438 C 122.433594 171.359375 119.664062 168.589844 116.25 168.589844 Z M 116.25 168.589844 " clip-rule="nonzero"/></clipPath><clipPath id="de9513558b"><path d="M 0.0625 0.589844 L 12.433594 0.589844 L 12.433594 12.960938 L 0.0625 12.960938 Z M 0.0625 0.589844 " clip-rule="nonzero"/></clipPath><clipPath id="3158a2a11f"><path d="M 6.25 0.589844 C 2.832031 0.589844 0.0625 3.359375 0.0625 6.773438 C 0.0625 10.191406 2.832031 12.960938 6.25 12.960938 C 9.664062 12.960938 12.433594 10.191406 12.433594 6.773438 C 12.433594 3.359375 9.664062 0.589844 6.25 0.589844 Z M 6.25 0.589844 " clip-rule="nonzero"/></clipPath><clipPath id="01524924bc"><rect x="0" width="13" y="0" height="13"/></clipPath><clipPath id="4f894eeb63"><path d="M 155.785156 252.496094 L 168.15625 252.496094 L 168.15625 264.863281 L 155.785156 264.863281 Z M 155.785156 252.496094 " clip-rule="nonzero"/></clipPath><clipPath id="90e06d0083"><path d="M 168.15625 258.679688 C 168.15625 255.261719 165.386719 252.496094 161.972656 252.496094 C 158.554688 252.496094 155.785156 255.261719 155.785156 258.679688 C 155.785156 262.09375 158.554688 264.863281 161.972656 264.863281 C 165.386719 264.863281 168.15625 262.09375 168.15625 258.679688 Z M 168.15625 258.679688 " clip-rule="nonzero"/></clipPath><clipPath id="3143068f2b"><path d="M 0.785156 0.496094 L 13.15625 0.496094 L 13.15625 12.863281 L 0.785156 12.863281 Z M 0.785156 0.496094 " clip-rule="nonzero"/></clipPath><clipPath id="91f3fc8596"><path d="M 13.15625 6.679688 C 13.15625 3.261719 10.386719 0.496094 6.972656 0.496094 C 3.554688 0.496094 0.785156 3.261719 0.785156 6.679688 C 0.785156 10.09375 3.554688 12.863281 6.972656 12.863281 C 10.386719 12.863281 13.15625 10.09375 13.15625 6.679688 Z M 13.15625 6.679688 " clip-rule="nonzero"/></clipPath><clipPath id="1cb1539eae"><rect x="0" width="14" y="0" height="13"/></clipPath><clipPath id="9ab31303b8"><path d="M 155.785156 110.121094 L 168.15625 110.121094 L 168.15625 122.488281 L 155.785156 122.488281 Z M 155.785156 110.121094 " clip-rule="nonzero"/></clipPath><clipPath id="d47b6f1b58"><path d="M 168.15625 116.304688 C 168.15625 112.890625 165.386719 110.121094 161.972656 110.121094 C 158.554688 110.121094 155.785156 112.890625 155.785156 116.304688 C 155.785156 119.722656 158.554688 122.488281 161.972656 122.488281 C 165.386719 122.488281 168.15625 119.722656 168.15625 116.304688 Z M 168.15625 116.304688 " clip-rule="nonzero"/></clipPath><clipPath id="3bacb0fb39"><path d="M 0.785156 0.121094 L 13.15625 0.121094 L 13.15625 12.488281 L 0.785156 12.488281 Z M 0.785156 0.121094 " clip-rule="nonzero"/></clipPath><clipPath id="64e1efbc5c"><path d="M 13.15625 6.304688 C 13.15625 2.890625 10.386719 0.121094 6.972656 0.121094 C 3.554688 0.121094 0.785156 2.890625 0.785156 6.304688 C 0.785156 9.722656 3.554688 12.488281 6.972656 12.488281 C 10.386719 12.488281 13.15625 9.722656 13.15625 6.304688 Z M 13.15625 6.304688 " clip-rule="nonzero"/></clipPath><clipPath id="d2ddc7ab82"><rect x="0" width="14" y="0" height="13"/></clipPath><clipPath id="833ba0a49e"><path d="M 151.15625 225.476562 L 170.648438 225.476562 L 170.648438 244.96875 L 151.15625 244.96875 Z M 151.15625 225.476562 " clip-rule="nonzero"/></clipPath><clipPath id="018b6f0339"><path d="M 160.902344 225.476562 C 155.519531 225.476562 151.15625 229.839844 151.15625 235.222656 C 151.15625 240.605469 155.519531 244.96875 160.902344 244.96875 C 166.285156 244.96875 170.648438 240.605469 170.648438 235.222656 C 170.648438 229.839844 166.285156 225.476562 160.902344 225.476562 Z M 160.902344 225.476562 " clip-rule="nonzero"/></clipPath><clipPath id="a79166b348"><path d="M 0.15625 0.476562 L 19.648438 0.476562 L 19.648438 19.96875 L 0.15625 19.96875 Z M 0.15625 0.476562 " clip-rule="nonzero"/></clipPath><clipPath id="4a6328b2a5"><path d="M 9.902344 0.476562 C 4.519531 0.476562 0.15625 4.839844 0.15625 10.222656 C 0.15625 15.605469 4.519531 19.96875 9.902344 19.96875 C 15.285156 19.96875 19.648438 15.605469 19.648438 10.222656 C 19.648438 4.839844 15.285156 0.476562 9.902344 0.476562 Z M 9.902344 0.476562 " clip-rule="nonzero"/></clipPath><clipPath id="7743f96d09"><rect x="0" width="20" y="0" height="20"/></clipPath><clipPath id="d45c06003e"><path d="M 129.738281 205.984375 L 149.230469 205.984375 L 149.230469 225.476562 L 129.738281 225.476562 Z M 129.738281 205.984375 " clip-rule="nonzero"/></clipPath><clipPath id="09ae7bc0d6"><path d="M 139.484375 205.984375 C 134.101562 205.984375 129.738281 210.347656 129.738281 215.730469 C 129.738281 221.113281 134.101562 225.476562 139.484375 225.476562 C 144.867188 225.476562 149.230469 221.113281 149.230469 215.730469 C 149.230469 210.347656 144.867188 205.984375 139.484375 205.984375 Z M 139.484375 205.984375 " clip-rule="nonzero"/></clipPath><clipPath id="2204c8bedc"><path d="M 0.738281 0.984375 L 20.230469 0.984375 L 20.230469 20.476562 L 0.738281 20.476562 Z M 0.738281 0.984375 " clip-rule="nonzero"/></clipPath><clipPath id="d4fcddb545"><path d="M 10.484375 0.984375 C 5.101562 0.984375 0.738281 5.347656 0.738281 10.730469 C 0.738281 16.113281 5.101562 20.476562 10.484375 20.476562 C 15.867188 20.476562 20.230469 16.113281 20.230469 10.730469 C 20.230469 5.347656 15.867188 0.984375 10.484375 0.984375 Z M 10.484375 0.984375 " clip-rule="nonzero"/></clipPath><clipPath id="5bafb0e228"><rect x="0" width="21" y="0" height="21"/></clipPath><clipPath id="c72040e926"><path d="M 124.730469 177.78125 L 144.226562 177.78125 L 144.226562 197.273438 L 124.730469 197.273438 Z M 124.730469 177.78125 " clip-rule="nonzero"/></clipPath><clipPath id="e2604982b7"><path d="M 134.480469 177.78125 C 129.097656 177.78125 124.730469 182.144531 124.730469 187.527344 C 124.730469 192.910156 129.097656 197.273438 134.480469 197.273438 C 139.863281 197.273438 144.226562 192.910156 144.226562 187.527344 C 144.226562 182.144531 139.863281 177.78125 134.480469 177.78125 Z M 134.480469 177.78125 " clip-rule="nonzero"/></clipPath><clipPath id="c3e963af00"><path d="M 0.730469 0.78125 L 20.226562 0.78125 L 20.226562 20.273438 L 0.730469 20.273438 Z M 0.730469 0.78125 " clip-rule="nonzero"/></clipPath><clipPath id="7b49538bb4"><path d="M 10.480469 0.78125 C 5.097656 0.78125 0.730469 5.144531 0.730469 10.527344 C 0.730469 15.910156 5.097656 20.273438 10.480469 20.273438 C 15.863281 20.273438 20.226562 15.910156 20.226562 10.527344 C 20.226562 5.144531 15.863281 0.78125 10.480469 0.78125 Z M 10.480469 0.78125 " clip-rule="nonzero"/></clipPath><clipPath id="4bf7f94c7a"><rect x="0" width="21" y="0" height="21"/></clipPath><clipPath id="ec7feb0711"><path d="M 204.164062 225.476562 L 223.65625 225.476562 L 223.65625 244.96875 L 204.164062 244.96875 Z M 204.164062 225.476562 " clip-rule="nonzero"/></clipPath><clipPath id="08caa36ce5"><path d="M 213.910156 225.476562 C 208.527344 225.476562 204.164062 229.839844 204.164062 235.222656 C 204.164062 240.605469 208.527344 244.96875 213.910156 244.96875 C 219.292969 244.96875 223.65625 240.605469 223.65625 235.222656 C 223.65625 229.839844 219.292969 225.476562 213.910156 225.476562 Z M 213.910156 225.476562 " clip-rule="nonzero"/></clipPath><clipPath id="902293c059"><path d="M 0.164062 0.476562 L 19.65625 0.476562 L 19.65625 19.96875 L 0.164062 19.96875 Z M 0.164062 0.476562 " clip-rule="nonzero"/></clipPath><clipPath id="ca2d98a09e"><path d="M 9.910156 0.476562 C 4.527344 0.476562 0.164062 4.839844 0.164062 10.222656 C 0.164062 15.605469 4.527344 19.96875 9.910156 19.96875 C 15.292969 19.96875 19.65625 15.605469 19.65625 10.222656 C 19.65625 4.839844 15.292969 0.476562 9.910156 0.476562 Z M 9.910156 0.476562 " clip-rule="nonzero"/></clipPath><clipPath id="f8d926c4a0"><rect x="0" width="20" y="0" height="20"/></clipPath><clipPath id="fb0896e625"><path d="M 225.769531 205.785156 L 245.261719 205.785156 L 245.261719 225.28125 L 225.769531 225.28125 Z M 225.769531 205.785156 " clip-rule="nonzero"/></clipPath><clipPath id="3f287c00eb"><path d="M 235.515625 205.785156 C 230.132812 205.785156 225.769531 210.152344 225.769531 215.535156 C 225.769531 220.917969 230.132812 225.28125 235.515625 225.28125 C 240.898438 225.28125 245.261719 220.917969 245.261719 215.535156 C 245.261719 210.152344 240.898438 205.785156 235.515625 205.785156 Z M 235.515625 205.785156 " clip-rule="nonzero"/></clipPath><clipPath id="073d7a6482"><path d="M 0.769531 0.785156 L 20.261719 0.785156 L 20.261719 20.28125 L 0.769531 20.28125 Z M 0.769531 0.785156 " clip-rule="nonzero"/></clipPath><clipPath id="fb48394106"><path d="M 10.515625 0.785156 C 5.132812 0.785156 0.769531 5.152344 0.769531 10.535156 C 0.769531 15.917969 5.132812 20.28125 10.515625 20.28125 C 15.898438 20.28125 20.261719 15.917969 20.261719 10.535156 C 20.261719 5.152344 15.898438 0.785156 10.515625 0.785156 Z M 10.515625 0.785156 " clip-rule="nonzero"/></clipPath><clipPath id="2b47f89c2a"><rect x="0" width="21" y="0" height="21"/></clipPath><clipPath id="96296a1d51"><path d="M 230.773438 177.78125 L 250.269531 177.78125 L 250.269531 197.273438 L 230.773438 197.273438 Z M 230.773438 177.78125 " clip-rule="nonzero"/></clipPath><clipPath id="69012bc7a0"><path d="M 240.519531 177.78125 C 235.136719 177.78125 230.773438 182.144531 230.773438 187.527344 C 230.773438 192.910156 235.136719 197.273438 240.519531 197.273438 C 245.902344 197.273438 250.269531 192.910156 250.269531 187.527344 C 250.269531 182.144531 245.902344 177.78125 240.519531 177.78125 Z M 240.519531 177.78125 " clip-rule="nonzero"/></clipPath><clipPath id="102deb1ed3"><path d="M 0.773438 0.78125 L 20.269531 0.78125 L 20.269531 20.273438 L 0.773438 20.273438 Z M 0.773438 0.78125 " clip-rule="nonzero"/></clipPath><clipPath id="848d5abd32"><path d="M 10.519531 0.78125 C 5.136719 0.78125 0.773438 5.144531 0.773438 10.527344 C 0.773438 15.910156 5.136719 20.273438 10.519531 20.273438 C 15.902344 20.273438 20.269531 15.910156 20.269531 10.527344 C 20.269531 5.144531 15.902344 0.78125 10.519531 0.78125 Z M 10.519531 0.78125 " clip-rule="nonzero"/></clipPath><clipPath id="e89a6db760"><rect x="0" width="21" y="0" height="21"/></clipPath></defs><rect x="-37.5" width="450" fill="#ffffff" y="-37.499999" height="449.999989" fill-opacity="1"/><rect x="-37.5" width="450" fill="#ffffff" y="-37.499999" height="449.999989" fill-opacity="1"/><g clip-path="url(#c1396a237c)"><path fill="#006bff" d="M 223.648438 187.328125 C 223.648438 188.511719 223.589844 189.691406 223.476562 190.871094 C 223.359375 192.046875 223.183594 193.21875 222.953125 194.378906 C 222.722656 195.539062 222.4375 196.6875 222.09375 197.820312 C 221.75 198.953125 221.351562 200.066406 220.898438 201.160156 C 220.445312 202.253906 219.9375 203.324219 219.378906 204.367188 C 218.820312 205.414062 218.214844 206.425781 217.554688 207.410156 C 216.898438 208.394531 216.195312 209.347656 215.441406 210.261719 C 214.691406 211.175781 213.898438 212.054688 213.058594 212.890625 C 212.222656 213.726562 211.347656 214.523438 210.429688 215.273438 C 209.515625 216.023438 208.566406 216.726562 207.582031 217.386719 C 206.597656 218.042969 205.582031 218.652344 204.539062 219.210938 C 203.496094 219.769531 202.425781 220.273438 201.332031 220.726562 C 200.238281 221.179688 199.125 221.578125 197.992188 221.921875 C 196.859375 222.265625 195.710938 222.554688 194.550781 222.785156 C 193.386719 223.015625 192.21875 223.1875 191.039062 223.304688 C 189.863281 223.421875 188.679688 223.480469 187.496094 223.480469 C 186.3125 223.480469 185.132812 223.421875 183.953125 223.304688 C 182.773438 223.1875 181.605469 223.015625 180.445312 222.785156 C 179.28125 222.554688 178.136719 222.265625 177.003906 221.921875 C 175.871094 221.578125 174.753906 221.179688 173.660156 220.726562 C 172.566406 220.273438 171.5 219.769531 170.453125 219.210938 C 169.410156 218.652344 168.394531 218.042969 167.410156 217.386719 C 166.425781 216.726562 165.476562 216.023438 164.5625 215.273438 C 163.648438 214.523438 162.769531 213.726562 161.933594 212.890625 C 161.097656 212.054688 160.300781 211.175781 159.550781 210.261719 C 158.800781 209.347656 158.09375 208.394531 157.4375 207.410156 C 156.777344 206.425781 156.171875 205.414062 155.613281 204.367188 C 155.054688 203.324219 154.550781 202.253906 154.097656 201.160156 C 153.644531 200.066406 153.246094 198.953125 152.902344 197.820312 C 152.558594 196.6875 152.269531 195.539062 152.039062 194.378906 C 151.808594 193.21875 151.632812 192.046875 151.519531 190.871094 C 151.402344 189.691406 151.34375 188.511719 151.34375 187.328125 C 151.34375 186.140625 151.402344 184.960938 151.519531 183.78125 C 151.632812 182.605469 151.808594 181.433594 152.039062 180.273438 C 152.269531 179.113281 152.558594 177.964844 152.902344 176.832031 C 153.246094 175.699219 153.644531 174.585938 154.097656 173.492188 C 154.550781 172.398438 155.054688 171.328125 155.613281 170.285156 C 156.171875 169.242188 156.777344 168.226562 157.4375 167.242188 C 158.09375 166.257812 158.800781 165.308594 159.550781 164.390625 C 160.300781 163.476562 161.097656 162.601562 161.933594 161.761719 C 162.769531 160.925781 163.648438 160.132812 164.5625 159.378906 C 165.476562 158.628906 166.425781 157.925781 167.410156 157.265625 C 168.394531 156.609375 169.410156 156 170.453125 155.441406 C 171.5 154.886719 172.566406 154.378906 173.660156 153.925781 C 174.753906 153.472656 175.871094 153.074219 177.003906 152.730469 C 178.136719 152.386719 179.28125 152.101562 180.445312 151.867188 C 181.605469 151.636719 182.773438 151.464844 183.953125 151.347656 C 185.132812 151.230469 186.3125 151.175781 187.496094 151.175781 C 188.679688 151.175781 189.863281 151.230469 191.039062 151.347656 C 192.21875 151.464844 193.386719 151.636719 194.550781 151.867188 C 195.710938 152.101562 196.859375 152.386719 197.992188 152.730469 C 199.125 153.074219 200.238281 153.472656 201.332031 153.925781 C 202.425781 154.378906 203.496094 154.886719 204.539062 155.441406 C 205.582031 156 206.597656 156.609375 207.582031 157.265625 C 208.566406 157.925781 209.515625 158.628906 210.429688 159.378906 C 211.347656 160.132812 212.222656 160.925781 213.058594 161.761719 C 213.898438 162.601562 214.691406 163.476562 215.441406 164.390625 C 216.195312 165.308594 216.898438 166.257812 217.554688 167.242188 C 218.214844 168.226562 218.820312 169.242188 219.378906 170.285156 C 219.9375 171.328125 220.445312 172.398438 220.898438 173.492188 C 221.351562 174.585938 221.75 175.699219 222.09375 176.832031 C 222.4375 177.964844 222.722656 179.113281 222.953125 180.273438 C 223.183594 181.433594 223.359375 182.605469 223.476562 183.78125 C 223.589844 184.960938 223.648438 186.140625 223.648438 187.328125 Z M 223.648438 187.328125 " fill-opacity="1" fill-rule="nonzero"/></g><g clip-path="url(#49ecfb70ad)"><path fill="#006bff" d="M 203.5625 187.328125 C 203.5625 199.472656 209.171875 207.855469 215.21875 210.515625 C 220.476562 204.238281 223.648438 196.15625 223.648438 187.328125 C 223.648438 178.496094 220.476562 170.414062 215.21875 164.136719 C 209.171875 166.796875 203.5625 175.179688 203.5625 187.328125 Z M 203.5625 187.328125 " fill-opacity="1" fill-rule="nonzero"/></g><path fill="#f8faed" d="M 205.574219 187.328125 C 205.574219 175.179688 209.171875 166.796875 215.21875 164.136719 C 214.324219 163.070312 213.359375 162.070312 212.347656 161.117188 C 206.386719 164.441406 201.554688 172.417969 201.554688 187.328125 C 201.554688 202.230469 206.386719 210.214844 212.347656 213.535156 C 213.359375 212.582031 214.324219 211.582031 215.21875 210.515625 C 209.171875 207.855469 205.574219 199.472656 205.574219 187.328125 Z M 205.574219 187.328125 " fill-opacity="1" fill-rule="nonzero"/><g clip-path="url(#889045bda4)"><path fill="#006bff" d="M 171.429688 187.328125 C 171.429688 175.179688 165.820312 166.800781 159.777344 164.136719 C 154.519531 170.414062 151.34375 178.496094 151.34375 187.328125 C 151.34375 196.15625 154.519531 204.238281 159.777344 210.515625 C 165.820312 207.851562 171.429688 199.472656 171.429688 187.328125 Z M 171.429688 187.328125 " fill-opacity="1" fill-rule="nonzero"/></g><path fill="#f8faed" d="M 159.777344 164.136719 C 165.820312 166.800781 169.421875 175.179688 169.421875 187.328125 C 169.421875 199.472656 165.820312 207.851562 159.777344 210.515625 C 160.667969 211.582031 161.636719 212.578125 162.644531 213.535156 C 168.601562 210.214844 173.4375 202.230469 173.4375 187.328125 C 173.4375 172.421875 168.605469 164.441406 162.644531 161.117188 C 161.636719 162.074219 160.667969 163.070312 159.777344 164.136719 Z M 159.777344 164.136719 " fill-opacity="1" fill-rule="nonzero"/><g clip-path="url(#c7ed53710e)"><g clip-path="url(#8ec5073e99)"><g transform="matrix(1, 0, 0, 1, 177, 122)"><g clip-path="url(#bd8c94f284)"><g clip-path="url(#7e10b0fb73)"><g clip-path="url(#f39bd2d005)"><path fill="#006bff" d="M 0.753906 0.488281 L 20.246094 0.488281 L 20.246094 19.984375 L 0.753906 19.984375 Z M 0.753906 0.488281 " fill-opacity="1" fill-rule="nonzero"/></g></g></g></g></g></g><g clip-path="url(#7945ea8c53)"><g clip-path="url(#59905f8e03)"><g transform="matrix(1, 0, 0, 1, 151, 130)"><g clip-path="url(#9769adaa6b)"><g clip-path="url(#9a195680a2)"><g clip-path="url(#129ec3cda9)"><path fill="#006bff" d="M 0.15625 0.0859375 L 19.648438 0.0859375 L 19.648438 19.578125 L 0.15625 19.578125 Z M 0.15625 0.0859375 " fill-opacity="1" fill-rule="nonzero"/></g></g></g></g></g></g><g clip-path="url(#78fa926578)"><g clip-path="url(#1c94ca89be)"><g transform="matrix(1, 0, 0, 1, 129, 149)"><g clip-path="url(#751931c16d)"><g clip-path="url(#d5d7a39e82)"><g clip-path="url(#9c6ac4e4ba)"><path fill="#006bff" d="M 0.738281 0.578125 L 20.230469 0.578125 L 20.230469 20.070312 L 0.738281 20.070312 Z M 0.738281 0.578125 " fill-opacity="1" fill-rule="nonzero"/></g></g></g></g></g></g><g clip-path="url(#0e429757f8)"><g clip-path="url(#d9cdef0ef3)"><g transform="matrix(1, 0, 0, 1, 204, 130)"><g clip-path="url(#dec4242aa0)"><g clip-path="url(#7963a2fda4)"><g clip-path="url(#247bf33110)"><path fill="#006bff" d="M 0.164062 0.0859375 L 19.65625 0.0859375 L 19.65625 19.578125 L 0.164062 19.578125 Z M 0.164062 0.0859375 " fill-opacity="1" fill-rule="nonzero"/></g></g></g></g></g></g><g clip-path="url(#9ba47c44cc)"><g clip-path="url(#ae38ebb0b2)"><g transform="matrix(1, 0, 0, 1, 225, 149)"><g clip-path="url(#d0f42bd931)"><g clip-path="url(#f698e055f7)"><g clip-path="url(#6d4630e0a6)"><path fill="#006bff" d="M 0.769531 0.578125 L 20.261719 0.578125 L 20.261719 20.070312 L 0.769531 20.070312 Z M 0.769531 0.578125 " fill-opacity="1" fill-rule="nonzero"/></g></g></g></g></g></g><g clip-path="url(#5c2097007c)"><g clip-path="url(#50319e6ae1)"><g transform="matrix(1, 0, 0, 1, 177, 233)"><g clip-path="url(#fb0564f81e)"><g clip-path="url(#972fe6e322)"><g clip-path="url(#5183753dfa)"><path fill="#006bff" d="M 0.753906 0 L 20.246094 0 L 20.246094 19.496094 L 0.753906 19.496094 Z M 0.753906 0 " fill-opacity="1" fill-rule="nonzero"/></g></g></g></g></g></g><g clip-path="url(#9bd503cb46)"><g clip-path="url(#803d6af24a)"><g transform="matrix(1, 0, 0, 1, 207, 252)"><g clip-path="url(#6b847a6144)"><g clip-path="url(#01fae87494)"><g clip-path="url(#0d1abe086d)"><path fill="#006bff" d="M 0.722656 0.496094 L 13.09375 0.496094 L 13.09375 12.863281 L 0.722656 12.863281 Z M 0.722656 0.496094 " fill-opacity="1" fill-rule="nonzero"/></g></g></g></g></g></g><g clip-path="url(#439d73d5a2)"><g clip-path="url(#53fb0b8973)"><g transform="matrix(1, 0, 0, 1, 207, 110)"><g clip-path="url(#8145587fe4)"><g clip-path="url(#3a2bb3b387)"><g clip-path="url(#fa8edf2365)"><path fill="#006bff" d="M 0.722656 0.121094 L 13.09375 0.121094 L 13.09375 12.488281 L 0.722656 12.488281 Z M 0.722656 0.121094 " fill-opacity="1" fill-rule="nonzero"/></g></g></g></g></g></g><g clip-path="url(#049d813b80)"><g clip-path="url(#09f84621cc)"><g transform="matrix(1, 0, 0, 1, 181, 261)"><g clip-path="url(#93fa6c5634)"><g clip-path="url(#7a247a2b06)"><g clip-path="url(#d27286ec8b)"><path fill="#006bff" d="M 0.949219 0.699219 L 13.320312 0.699219 L 13.320312 13.070312 L 0.949219 13.070312 Z M 0.949219 0.699219 " fill-opacity="1" fill-rule="nonzero"/></g></g></g></g></g></g><g clip-path="url(#ae3d574217)"><g clip-path="url(#76229f4f60)"><g transform="matrix(1, 0, 0, 1, 181, 100)"><g clip-path="url(#dcdf123e63)"><g clip-path="url(#daa9c3732c)"><g clip-path="url(#7eaa585fa5)"><path fill="#006bff" d="M 0.949219 0.929688 L 13.320312 0.929688 L 13.320312 13.300781 L 0.949219 13.300781 Z M 0.949219 0.929688 " fill-opacity="1" fill-rule="nonzero"/></g></g></g></g></g></g><g clip-path="url(#4420c5deec)"><g clip-path="url(#369ead3a50)"><g transform="matrix(1, 0, 0, 1, 252, 193)"><g clip-path="url(#2924b7669c)"><g clip-path="url(#e412e702cf)"><g clip-path="url(#f14c630954)"><path fill="#006bff" d="M 12.929688 0.417969 L 12.929688 12.785156 L 0.558594 12.785156 L 0.558594 0.417969 Z M 12.929688 0.417969 " fill-opacity="1" fill-rule="nonzero"/></g></g></g></g></g></g><g clip-path="url(#d3b7c0a065)"><g clip-path="url(#b51178a56c)"><g transform="matrix(1, 0, 0, 1, 252, 168)"><g clip-path="url(#42c80397f9)"><g clip-path="url(#f6a240efae)"><g clip-path="url(#76117eddb6)"><path fill="#006bff" d="M 12.929688 0.589844 L 12.929688 12.960938 L 0.558594 12.960938 L 0.558594 0.589844 Z M 12.929688 0.589844 " fill-opacity="1" fill-rule="nonzero"/></g></g></g></g></g></g><g clip-path="url(#3d67e46aad)"><g clip-path="url(#03b639495f)"><g transform="matrix(1, 0, 0, 1, 129, 236)"><g clip-path="url(#c1f543b2af)"><g clip-path="url(#a74603761d)"><g clip-path="url(#76d610f100)"><path fill="#006bff" d="M 0.738281 0.5625 L 13.105469 0.5625 L 13.105469 12.933594 L 0.738281 12.933594 Z M 0.738281 0.5625 " fill-opacity="1" fill-rule="nonzero"/></g></g></g></g></g></g><g clip-path="url(#daf1abfd4c)"><g clip-path="url(#adb42b3a1b)"><g transform="matrix(1, 0, 0, 1, 129, 128)"><g clip-path="url(#0ea584ae53)"><g clip-path="url(#0df1deee41)"><g clip-path="url(#007ca5759d)"><path fill="#006bff" d="M 0.738281 0.015625 L 13.105469 0.015625 L 13.105469 12.386719 L 0.738281 12.386719 Z M 0.738281 0.015625 " fill-opacity="1" fill-rule="nonzero"/></g></g></g></g></g></g><g clip-path="url(#198ca0972d)"><g clip-path="url(#12e3561bff)"><g transform="matrix(1, 0, 0, 1, 112, 215)"><g clip-path="url(#96ad6fe87d)"><g clip-path="url(#7def5a0810)"><g clip-path="url(#97caad0f56)"><path fill="#006bff" d="M 0.363281 0.535156 L 12.730469 0.535156 L 12.730469 12.902344 L 0.363281 12.902344 Z M 0.363281 0.535156 " fill-opacity="1" fill-rule="nonzero"/></g></g></g></g></g></g><g clip-path="url(#9b93b382ea)"><g clip-path="url(#ca4ec5b80e)"><g transform="matrix(1, 0, 0, 1, 112, 147)"><g clip-path="url(#ea96a1bec2)"><g clip-path="url(#028f3f183e)"><g clip-path="url(#c81376fb50)"><path fill="#006bff" d="M 0.363281 0.0273438 L 12.730469 0.0273438 L 12.730469 12.398438 L 0.363281 12.398438 Z M 0.363281 0.0273438 " fill-opacity="1" fill-rule="nonzero"/></g></g></g></g></g></g><g clip-path="url(#9a56ac204d)"><g clip-path="url(#eb2d97201d)"><g transform="matrix(1, 0, 0, 1, 249, 215)"><g clip-path="url(#3f5835aa2b)"><g clip-path="url(#268f4d7a79)"><g clip-path="url(#560721e376)"><path fill="#006bff" d="M 0.859375 0.535156 L 13.230469 0.535156 L 13.230469 12.902344 L 0.859375 12.902344 Z M 0.859375 0.535156 " fill-opacity="1" fill-rule="nonzero"/></g></g></g></g></g></g><g clip-path="url(#a1a06c0e23)"><g clip-path="url(#91549e9b76)"><g transform="matrix(1, 0, 0, 1, 249, 147)"><g clip-path="url(#81dbb34ec3)"><g clip-path="url(#a10e916e69)"><g clip-path="url(#c9df017c08)"><path fill="#006bff" d="M 0.859375 0.0273438 L 13.230469 0.0273438 L 13.230469 12.398438 L 0.859375 12.398438 Z M 0.859375 0.0273438 " fill-opacity="1" fill-rule="nonzero"/></g></g></g></g></g></g><g clip-path="url(#299c9a1586)"><g clip-path="url(#9ab179ba10)"><g transform="matrix(1, 0, 0, 1, 232, 236)"><g clip-path="url(#d636af4f11)"><g clip-path="url(#c7b011d5ae)"><g clip-path="url(#8e050fc586)"><path fill="#006bff" d="M 13.210938 0.5625 L 13.210938 12.933594 L 0.839844 12.933594 L 0.839844 0.5625 Z M 13.210938 0.5625 " fill-opacity="1" fill-rule="nonzero"/></g></g></g></g></g></g><g clip-path="url(#76d6292415)"><g clip-path="url(#412931e83c)"><g transform="matrix(1, 0, 0, 1, 232, 128)"><g clip-path="url(#f9675da26f)"><g clip-path="url(#eb51bff14f)"><g clip-path="url(#35c50f476a)"><path fill="#006bff" d="M 13.210938 0.015625 L 13.210938 12.386719 L 0.839844 12.386719 L 0.839844 0.015625 Z M 13.210938 0.015625 " fill-opacity="1" fill-rule="nonzero"/></g></g></g></g></g></g><g clip-path="url(#b51f9f25dc)"><g clip-path="url(#5405f6bd1a)"><g transform="matrix(1, 0, 0, 1, 110, 193)"><g clip-path="url(#e51284ca24)"><g clip-path="url(#ee53ca2e86)"><g clip-path="url(#1b8167e762)"><path fill="#006bff" d="M 0.0625 0.417969 L 12.433594 0.417969 L 12.433594 12.785156 L 0.0625 12.785156 Z M 0.0625 0.417969 " fill-opacity="1" fill-rule="nonzero"/></g></g></g></g></g></g><g clip-path="url(#346d058fae)"><g clip-path="url(#9fb537b9ca)"><g transform="matrix(1, 0, 0, 1, 110, 168)"><g clip-path="url(#01524924bc)"><g clip-path="url(#de9513558b)"><g clip-path="url(#3158a2a11f)"><path fill="#006bff" d="M 0.0625 0.589844 L 12.433594 0.589844 L 12.433594 12.960938 L 0.0625 12.960938 Z M 0.0625 0.589844 " fill-opacity="1" fill-rule="nonzero"/></g></g></g></g></g></g><g clip-path="url(#4f894eeb63)"><g clip-path="url(#90e06d0083)"><g transform="matrix(1, 0, 0, 1, 155, 252)"><g clip-path="url(#1cb1539eae)"><g clip-path="url(#3143068f2b)"><g clip-path="url(#91f3fc8596)"><path fill="#006bff" d="M 13.15625 0.496094 L 13.15625 12.863281 L 0.785156 12.863281 L 0.785156 0.496094 Z M 13.15625 0.496094 " fill-opacity="1" fill-rule="nonzero"/></g></g></g></g></g></g><g clip-path="url(#9ab31303b8)"><g clip-path="url(#d47b6f1b58)"><g transform="matrix(1, 0, 0, 1, 155, 110)"><g clip-path="url(#d2ddc7ab82)"><g clip-path="url(#3bacb0fb39)"><g clip-path="url(#64e1efbc5c)"><path fill="#006bff" d="M 13.15625 0.121094 L 13.15625 12.488281 L 0.785156 12.488281 L 0.785156 0.121094 Z M 13.15625 0.121094 " fill-opacity="1" fill-rule="nonzero"/></g></g></g></g></g></g><g clip-path="url(#833ba0a49e)"><g clip-path="url(#018b6f0339)"><g transform="matrix(1, 0, 0, 1, 151, 225)"><g clip-path="url(#7743f96d09)"><g clip-path="url(#a79166b348)"><g clip-path="url(#4a6328b2a5)"><path fill="#006bff" d="M 0.15625 0.476562 L 19.648438 0.476562 L 19.648438 19.96875 L 0.15625 19.96875 Z M 0.15625 0.476562 " fill-opacity="1" fill-rule="nonzero"/></g></g></g></g></g></g><g clip-path="url(#d45c06003e)"><g clip-path="url(#09ae7bc0d6)"><g transform="matrix(1, 0, 0, 1, 129, 205)"><g clip-path="url(#5bafb0e228)"><g clip-path="url(#2204c8bedc)"><g clip-path="url(#d4fcddb545)"><path fill="#006bff" d="M 0.738281 0.984375 L 20.230469 0.984375 L 20.230469 20.476562 L 0.738281 20.476562 Z M 0.738281 0.984375 " fill-opacity="1" fill-rule="nonzero"/></g></g></g></g></g></g><g clip-path="url(#c72040e926)"><g clip-path="url(#e2604982b7)"><g transform="matrix(1, 0, 0, 1, 124, 177)"><g clip-path="url(#4bf7f94c7a)"><g clip-path="url(#c3e963af00)"><g clip-path="url(#7b49538bb4)"><path fill="#006bff" d="M 0.730469 0.78125 L 20.226562 0.78125 L 20.226562 20.273438 L 0.730469 20.273438 Z M 0.730469 0.78125 " fill-opacity="1" fill-rule="nonzero"/></g></g></g></g></g></g><g clip-path="url(#ec7feb0711)"><g clip-path="url(#08caa36ce5)"><g transform="matrix(1, 0, 0, 1, 204, 225)"><g clip-path="url(#f8d926c4a0)"><g clip-path="url(#902293c059)"><g clip-path="url(#ca2d98a09e)"><path fill="#006bff" d="M 0.164062 0.476562 L 19.65625 0.476562 L 19.65625 19.96875 L 0.164062 19.96875 Z M 0.164062 0.476562 " fill-opacity="1" fill-rule="nonzero"/></g></g></g></g></g></g><g clip-path="url(#fb0896e625)"><g clip-path="url(#3f287c00eb)"><g transform="matrix(1, 0, 0, 1, 225, 205)"><g clip-path="url(#2b47f89c2a)"><g clip-path="url(#073d7a6482)"><g clip-path="url(#fb48394106)"><path fill="#006bff" d="M 0.769531 0.785156 L 20.261719 0.785156 L 20.261719 20.28125 L 0.769531 20.28125 Z M 0.769531 0.785156 " fill-opacity="1" fill-rule="nonzero"/></g></g></g></g></g></g><g clip-path="url(#96296a1d51)"><g clip-path="url(#69012bc7a0)"><g transform="matrix(1, 0, 0, 1, 230, 177)"><g clip-path="url(#e89a6db760)"><g clip-path="url(#102deb1ed3)"><g clip-path="url(#848d5abd32)"><path fill="#006bff" d="M 0.773438 0.78125 L 20.269531 0.78125 L 20.269531 20.273438 L 0.773438 20.273438 Z M 0.773438 0.78125 " fill-opacity="1" fill-rule="nonzero"/></g></g></g></g></g></g></svg>